<svg width="72" height="86" viewBox="0 0 72 86" fill="none" xmlns="http://www.w3.org/2000/svg">
<path d="M35.3872 41.4265C41.0784 41.4265 46.006 39.3853 50.0333 35.358C54.0593 31.3314 56.1011 26.4045 56.1011 20.7126C56.1011 15.0227 54.0599 10.0952 50.0326 6.0672C46.0053 2.04121 41.0778 0 35.3872 0C29.6953 0 24.7684 2.04121 20.7417 6.06786C16.7151 10.0945 14.6732 15.022 14.6732 20.7126C14.6732 26.4045 16.7151 31.332 20.7417 35.3587C24.7697 39.3847 29.6972 41.4265 35.3872 41.4265ZM24.3058 9.63128C27.3955 6.54158 31.02 5.03971 35.3872 5.03971C39.7537 5.03971 43.3788 6.54158 46.4692 9.63128C49.5589 12.7216 51.0614 16.3467 51.0614 20.7126C51.0614 25.0798 49.5589 28.7042 46.4692 31.7946C43.3788 34.8849 39.7537 36.3868 35.3872 36.3868C31.0213 36.3868 27.3969 34.8843 24.3058 31.7946C21.2155 28.7049 19.7129 25.0798 19.7129 20.7126C19.7129 16.3467 21.2155 12.7216 24.3058 9.63128Z" fill="#DEE5EC"/>
<path d="M71.631 66.1299C71.5149 64.4541 71.28 62.6261 70.9342 60.6958C70.5852 58.7511 70.1357 56.9126 69.5977 55.2323C69.0413 53.4955 68.2861 51.7804 67.3511 50.1368C66.382 48.4308 65.243 46.9454 63.9648 45.723C62.6283 44.4442 60.9919 43.4161 59.0996 42.6661C57.2139 41.9201 55.1242 41.5422 52.8887 41.5422C52.0108 41.5422 51.1618 41.9024 49.5221 42.9699C48.513 43.628 47.3326 44.3891 46.0151 45.2309C44.8886 45.9487 43.3624 46.6212 41.4774 47.2301C39.6382 47.8252 37.7709 48.1271 35.9272 48.1271C34.0848 48.1271 32.2174 47.8252 30.377 47.2301C28.4939 46.6219 26.9671 45.9494 25.8425 45.2316C24.5374 44.3976 23.3564 43.6365 22.3322 42.9692C20.6938 41.9017 19.8448 41.5415 18.9669 41.5415C16.7308 41.5415 14.6417 41.9201 12.7567 42.6668C10.8657 43.4154 9.22867 44.4436 7.89082 45.7237C6.61269 46.9467 5.47365 48.4315 4.5052 50.1368C3.57153 51.7804 2.81567 53.4948 2.25928 55.2329C1.72191 56.9132 1.27246 58.7511 0.923401 60.6958C0.576965 62.6235 0.342728 64.4521 0.226593 66.1318C0.112427 67.7741 0.0546875 69.4833 0.0546875 71.2103C0.0546875 75.6995 1.48177 79.3338 4.2959 82.014C7.07526 84.6589 10.7522 86 15.225 86H56.6346C61.1061 86 64.783 84.6589 67.563 82.014C70.3778 79.3357 71.8049 75.7001 71.8049 71.2096C71.8042 69.4768 71.7458 67.7676 71.631 66.1299ZM64.0882 78.3627C62.2517 80.1106 59.8135 80.9603 56.6339 80.9603H15.225C12.0448 80.9603 9.6066 80.1106 7.77075 78.3633C5.96968 76.6489 5.09441 74.3085 5.09441 71.2103C5.09441 69.5988 5.14755 68.0077 5.25385 66.4802C5.35751 64.9816 5.56944 63.3354 5.88373 61.5862C6.19408 59.8586 6.58907 58.2373 7.05885 56.7696C7.50961 55.3622 8.1244 53.9685 8.88683 52.6261C9.61447 51.3467 10.4517 50.249 11.3755 49.3645C12.2396 48.5371 13.3288 47.86 14.6122 47.3522C15.7991 46.8824 17.133 46.6252 18.5811 46.5865C18.7576 46.6803 19.0719 46.8594 19.5811 47.1914C20.6171 47.8666 21.8112 48.6369 23.1314 49.48C24.6195 50.4287 26.5367 51.2856 28.8272 52.0251C31.1689 52.7823 33.5572 53.1668 35.9278 53.1668C38.2984 53.1668 40.6874 52.7823 43.0278 52.0258C45.3203 51.285 47.2368 50.4287 48.7269 49.4787C50.0779 48.6152 51.2386 47.8672 52.2746 47.1914C52.7838 46.8601 53.098 46.6803 53.2745 46.5865C54.7233 46.6252 56.0572 46.8824 57.2448 47.3522C58.5275 47.86 59.6167 48.5378 60.4808 49.3645C61.4046 50.2483 62.2418 51.346 62.9695 52.6268C63.7326 53.9685 64.348 55.3628 64.7981 56.7689C65.2686 58.2386 65.6642 59.8593 65.9739 61.5855C66.2875 63.338 66.5001 64.9849 66.6038 66.4809V66.4822C66.7107 68.0038 66.7645 69.5942 66.7652 71.2103C66.7645 74.3091 65.8893 76.6489 64.0882 78.3627Z" fill="#DEE5EC"/>
</svg>
